<?xml version="1.0"?>
<svg width="16" height="16" viewBox="0 0 16 16" version="1.1" xmlns="http://www.w3.org/2000/svg">
  <rect x="2" y="1" width="12" height="12" fill="#33a"/>

  <rect x="4" y="2" width="8" height="10" fill="#f00"/>
  <rect x="3" y="3" width="1" height="8" fill="#000"/>
  <rect x="5" y="1" width="6" height="1" fill="#000"/>
  <rect x="12" y="3" width="1" height="8" fill="#000"/>
  <rect x="5" y="12" width="6" height="1" fill="#000"/>

  <rect x="4" y="2" width="1" height="1" fill="#300"/>
  <rect x="11" y="2" width="1" height="1" fill="#300"/>
  <rect x="4" y="11" width="1" height="1" fill="#300"/>
  <rect x="11" y="11" width="1" height="1" fill="#300"/>

  <rect x="5" y="3" width="1" height="1" fill="#600"/>
  <rect x="10" y="3" width="1" height="1" fill="#600"/>
  <rect x="5" y="10" width="1" height="1" fill="#600"/>
  <rect x="10" y="10" width="1" height="1" fill="#600"/>

  <rect x="6" y="4" width="4" height="6" fill="#000"/>
  <rect x="7" y="5" width="2" height="4" fill="#f00"/>

  <rect x="2" y="0" width="12" height="1" fill="#000"/>
  <rect x="14" y="0" width="1" height="14" fill="#000"/>
  <rect x="2" y="13" width="12" height="1" fill="#000"/>
  <rect x="1" y="1" width="1" height="14" fill="#000"/>
  <rect x="2" y="14" width="11" height="1" fill="#ccc"/>
  <rect x="13" y="14" width="1" height="1" fill="#000"/>
  <rect x="2" y="15" width="13" height="1" fill="#000"/>
</svg>
